<?xml version="1.0" standalone="no"?>
<!DOCTYPE svg PUBLIC "-//W3C//DTD SVG 20010904//EN"
 "http://www.w3.org/TR/2001/REC-SVG-20010904/DTD/svg10.dtd">
<svg version="1.0" xmlns="http://www.w3.org/2000/svg"
 width="700.000000pt" height="700.000000pt" viewBox="0 0 700.000000 700.000000"
 preserveAspectRatio="xMidYMid meet">
<metadata>
Created by potrace 1.14, written by Peter Selinger 2001-2017
</metadata>
<g transform="translate(0.000000,700.000000) scale(0.100000,-0.100000)"
fill="#000000" stroke="none">
<path d="M1719 6996 c-2 -2 -33 -6 -69 -10 -86 -8 -206 -33 -305 -61 -547
-158 -993 -560 -1208 -1090 -39 -95 -92 -273 -101 -340 -7 -50 -13 -81 -23
-120 -11 -45 -13 -3626 -2 -3715 54 -438 242 -824 545 -1122 205 -201 416
-333 689 -430 94 -34 138 -46 260 -73 126 -27 181 -28 1940 -31 990 -1 1834 1
1875 6 223 24 433 83 623 175 93 45 198 103 207 114 3 3 25 19 50 35 112 73
288 237 390 365 185 231 315 510 375 801 1 8 6 35 9 60 4 25 11 72 16 105 5
35 8 820 6 1870 -2 1952 1 1841 -52 2052 -126 507 -468 944 -935 1196 -159 86
-400 168 -564 191 -22 3 -69 10 -105 15 -61 9 -3612 16 -3621 7z"/>
</g>
</svg>
