<svg width="25" height="25" fill="none" xmlns="http://www.w3.org/2000/svg"><path d="M20.16.5H3.84A3.84 3.84 0 0 0 0 4.34v16.32a3.84 3.84 0 0 0 3.84 3.84h16.32A3.84 3.84 0 0 0 24 20.66V4.34A3.84 3.84 0 0 0 20.16.5Z" fill="#5850EC"></path><path d="M16.993 10.745c0 3.908-2.108 7.403-6.362 9.238l-3.432-2.436c2.795-1.058 4.897-2.712 5.677-4.917l-.181-.138c-.368.37-.73.508-1.417.508C9.494 13 7.48 11.804 7.48 9.14c0-2.805 1.878-4.321 4.579-4.321 3.332-.006 4.935 2.618 4.935 5.925Z" fill="#fff"></path></svg>