<svg width="134" height="25" fill="none" xmlns="http://www.w3.org/2000/svg"><path d="M20.16.5H3.84A3.84 3.84 0 0 0 0 4.34v16.32a3.84 3.84 0 0 0 3.84 3.84h16.32A3.84 3.84 0 0 0 24 20.66V4.34A3.84 3.84 0 0 0 20.16.5Z" fill="#5850EC"></path><path d="M16.993 10.745c0 3.908-2.108 7.403-6.362 9.238l-3.432-2.436c2.795-1.058 4.897-2.712 5.677-4.917l-.181-.138c-.368.37-.73.508-1.417.508C9.494 13 7.48 11.804 7.48 9.14c0-2.805 1.878-4.321 4.579-4.321 3.332-.006 4.935 2.618 4.935 5.925Z" fill="#fff"></path><path d="M41.799 12.986v7.008h-3.595v-6.02c0-1.495-.612-1.98-1.502-1.98-1.035 0-1.904.694-1.904 2.44v5.556h-3.599V9.474h3.214l.107 2.039c.655-1.495 1.947-2.252 3.616-2.252 2.182 0 3.663 1.286 3.663 3.725ZM44.02 6.544c0-1.2.633-1.724 2.092-1.724 1.46 0 2.093.528 2.093 1.724 0 1.18-.634 1.703-2.093 1.703-1.46 0-2.093-.523-2.093-1.703Zm3.894 13.45h-3.595V9.474h3.595v10.52ZM61.072 12.986v7.008h-3.595v-6.02c0-1.495-.611-1.98-1.502-1.98-1.035 0-1.904.694-1.904 2.44v5.556h-3.594V9.474h3.213l.107 2.039c.655-1.495 1.947-2.252 3.616-2.252 2.178 0 3.66 1.286 3.66 3.725ZM73.793 15.766h-7.215c.23 1.367 1.014 1.916 2.22 1.916 1.058 0 1.712-.421 1.948-1.158l2.918.928c-.612 1.831-2.413 2.76-4.865 2.76-3.702 0-5.713-2.002-5.713-5.472 0-3.47 1.99-5.47 5.52-5.47 3.45 0 5.29 2 5.29 5.325.004.35-.04.895-.103 1.171Zm-7.215-1.937h3.975c-.192-1.345-.847-2.06-1.968-2.06-1.138-.005-1.819.63-2.007 2.06ZM83.457 19.407c-.697.485-1.883.8-2.982.8-2.393 0-3.873-.924-3.895-3.368v-4.82h-1.818V9.475h1.818v-2.36l3.595-.987v3.347h3.175v2.546h-3.175v4.232c0 1.009.51 1.409 1.395 1.409.655 0 1.1-.17 1.524-.464l.363 2.21ZM96.025 17.87l-.274 2c-.424.23-.912.337-1.438.337-1.416 0-2.414-.485-2.73-1.622-.59 1.009-1.819 1.622-3.766 1.622-2.093 0-3.278-.924-3.278-2.631 0-1.746 1.121-2.861 4.125-3.453l2.392-.464v-.38c0-.944-.552-1.557-1.502-1.557-1.014 0-1.754.4-1.968 1.622l-2.918-.843c.359-2.001 2.01-3.24 4.886-3.24 3.257 0 5.058 1.328 5.058 4.04v3.832c0 .55.253.822.762.822.248 0 .462-.022.65-.085Zm-4.969-1.474v-.907l-1.711.4c-.89.214-1.25.507-1.25 1.095 0 .587.381.907 1.036.907.886 0 1.925-.528 1.925-1.495ZM97.152 6.544c0-1.2.634-1.724 2.093-1.724s2.092.528 2.092 1.724c0 1.18-.633 1.703-2.092 1.703-1.46 0-2.093-.523-2.093-1.703Zm3.89 13.45h-3.594V9.474h3.594v10.52ZM107.157 16.354c0 .928.231 1.307.971 1.307.424 0 .698-.064 1.079-.192l-.231 2.21c-.509.315-1.417.528-2.2.528-2.263 0-3.214-.988-3.214-3.325V5.007h3.595v11.347ZM120.719 15.766h-7.215c.231 1.367 1.014 1.916 2.221 1.916 1.057 0 1.711-.421 1.947-1.158l2.918.928c-.612 1.831-2.413 2.76-4.865 2.76-3.702 0-5.713-2.002-5.713-5.472 0-3.47 1.99-5.47 5.52-5.47 3.449 0 5.289 2 5.289 5.325.004.35-.038.895-.102 1.171Zm-7.215-1.937h3.975c-.192-1.345-.847-2.06-1.968-2.06-1.139-.005-1.815.63-2.007 2.06ZM133.563 5.007v14.987h-3.235l-.15-2.001c-.59 1.324-1.797 2.21-3.427 2.21-2.752 0-4.356-2.001-4.356-5.429 0-3.495 1.651-5.513 4.356-5.513 1.545 0 2.644.8 3.213 2V5.008h3.599Zm-3.62 9.831.021.021v-.272l-.021.043c0-1.746-.697-2.738-1.947-2.738-1.228 0-1.99.864-1.99 2.84 0 1.975.762 2.84 1.99 2.84 1.207.004 1.947-.924 1.947-2.734Z" fill="#151E2E"></path></svg>